<?xml version="1.0" encoding="UTF-8"?>
<!DOCTYPE svg PUBLIC "-//W3C//DTD SVG 1.1//EN" "http://www.w3.org/Graphics/SVG/1.1/DTD/svg11.dtd">
<svg xmlns="http://www.w3.org/2000/svg" version="1.1" width="180px" height="180px" style="shape-rendering:geometricPrecision; text-rendering:geometricPrecision; image-rendering:optimizeQuality; fill-rule:evenodd; clip-rule:evenodd" xmlns:xlink="http://www.w3.org/1999/xlink">
<g><path style="opacity:0.85" fill="#100200" d="M 98.5,30.5 C 100.655,30.372 102.655,30.872 104.5,32C 111.009,37.5659 116.176,44.0659 120,51.5C 124.452,49.4244 129.119,48.091 134,47.5C 136.97,48.022 137.804,49.522 136.5,52C 125.681,53.2424 116.681,57.9091 109.5,66C 135.565,73.9579 144.399,91.1245 136,117.5C 122.104,147.205 99.6044,157.371 68.5,148C 40.5443,132.455 31.711,109.622 42,79.5C 54.9076,52.3053 75.0743,45.1386 102.5,58C 103.787,59.4095 104.954,60.9095 106,62.5C 107.873,60.2911 110.04,58.4578 112.5,57C 101.711,51.5063 97.0446,42.6729 98.5,30.5 Z"/></g>
<g><path style="opacity:1" fill="#009707" d="M 101.5,35.5 C 108.461,39.1312 112.794,44.7978 114.5,52.5C 111.191,51.7579 108.357,50.0912 106,47.5C 103.646,43.797 102.146,39.797 101.5,35.5 Z"/></g>
<g><path style="opacity:1" fill="#fc0000" d="M 108.5,67.5 C 108.511,69.0174 109.177,70.1841 110.5,71C 123.267,73.4348 131.1,80.9348 134,93.5C 135.946,113.442 128.779,129.276 112.5,141C 86.0861,153.771 64.2528,148.271 47,124.5C 37.4185,102.839 40.2518,83.0059 55.5,65C 69.1449,53.8328 83.8116,52.4994 99.5,61C 103.693,63.7369 104.027,66.5702 100.5,69.5C 98.7826,68.3315 98.1159,66.6648 98.5,64.5C 97.1667,64.5 95.8333,64.5 94.5,64.5C 94.3459,68.0254 95.6792,70.8587 98.5,73C 102.188,75.7349 106.188,76.9016 110.5,76.5C 111.521,75.9984 111.688,75.3317 111,74.5C 103.679,73.8574 102.846,71.524 108.5,67.5 Z"/></g>
</svg>
